<svg width="33" height="44" viewBox="0 0 33 44" fill="none" xmlns="http://www.w3.org/2000/svg">
<path d="M18.8767 42.0636L17.3525 42.8067C16.8028 43.0644 16.1972 43.0644 15.6475 42.8067L14.1233 42.0636C10.2627 40.1707 6.94673 36.8692 4.60632 32.5882C2.26592 28.3072 1.00937 23.2447 1 18.0587V9.07703C3.92561 9.59848 6.90952 9.12345 9.63736 7.70197C12.3652 6.28049 14.736 3.96519 16.5 1C19.7292 6.88008 25.0767 9.65858 32 9.07703V18.0587C31.9906 23.2447 30.7341 28.3072 28.3937 32.5882C26.0533 36.8692 22.7373 40.1707 18.8767 42.0636Z" stroke="#375219" stroke-width="1.24183" stroke-linecap="round" stroke-linejoin="round"/>
<rect x="1.38164" y="28.4314" width="30.2367" height="7.94714" fill="#375219"/>
<path d="M4.558 30.222V34.905H3.935V30.88L2.962 31.538L2.675 31.118L4.005 30.222H4.558ZM7.18984 30.222V34.905H6.56684V30.88L5.59384 31.538L5.30684 31.118L6.63684 30.222H7.18984ZM10.1554 32.406C10.4774 32.5507 10.713 32.7234 10.8624 32.924C11.0117 33.1247 11.0864 33.372 11.0864 33.666C11.0864 33.9274 11.0257 34.1584 10.9044 34.359C10.783 34.5597 10.608 34.716 10.3794 34.828C10.1554 34.94 9.89404 34.996 9.59538 34.996C9.30138 34.996 9.04238 34.9424 8.81838 34.835C8.59904 34.723 8.42871 34.5667 8.30738 34.366C8.19071 34.1654 8.13238 33.9367 8.13238 33.68C8.13238 33.1014 8.42871 32.686 9.02138 32.434C8.76938 32.2987 8.58738 32.1447 8.47538 31.972C8.36338 31.7994 8.30738 31.5917 8.30738 31.349C8.30738 31.097 8.36571 30.88 8.48238 30.698C8.59904 30.516 8.75538 30.3784 8.95138 30.285C9.15204 30.1917 9.37138 30.145 9.60938 30.145C9.98271 30.145 10.293 30.2477 10.5404 30.453C10.7924 30.6584 10.9184 30.9477 10.9184 31.321C10.9184 31.559 10.8577 31.7644 10.7364 31.937C10.615 32.1097 10.4214 32.266 10.1554 32.406ZM9.61638 30.607C9.40171 30.607 9.23138 30.67 9.10538 30.796C8.97938 30.9174 8.91638 31.104 8.91638 31.356C8.91638 31.566 8.96771 31.7317 9.07038 31.853C9.17771 31.9697 9.35738 32.0794 9.60938 32.182L9.77038 32.252C9.96638 32.1214 10.104 31.9884 10.1834 31.853C10.2674 31.713 10.3094 31.545 10.3094 31.349C10.3094 31.1017 10.2487 30.9174 10.1274 30.796C10.006 30.67 9.83571 30.607 9.61638 30.607ZM9.60938 34.506C9.87538 34.506 10.083 34.436 10.2324 34.296C10.3817 34.1514 10.4564 33.9414 10.4564 33.666C10.4564 33.4187 10.3934 33.2274 10.2674 33.092C10.146 32.952 9.92671 32.8167 9.60938 32.686L9.41338 32.609C9.18938 32.7257 9.02371 32.868 8.91638 33.036C8.81371 33.204 8.76238 33.414 8.76238 33.666C8.76238 33.946 8.83704 34.156 8.98638 34.296C9.13571 34.436 9.34338 34.506 9.60938 34.506ZM15.2048 29.998C15.7788 29.998 16.2292 30.2104 16.5558 30.635C16.8872 31.055 17.0528 31.6757 17.0528 32.497C17.0528 33.3044 16.8895 33.9227 16.5628 34.352C16.2362 34.7814 15.7835 34.996 15.2048 34.996C14.6308 34.996 14.1782 34.786 13.8468 34.366C13.5202 33.9414 13.3568 33.3207 13.3568 32.504C13.3568 31.9674 13.4315 31.5124 13.5808 31.139C13.7348 30.761 13.9495 30.4764 14.2248 30.285C14.5048 30.0937 14.8315 29.998 15.2048 29.998ZM15.2048 30.516C14.4302 30.516 14.0428 31.1787 14.0428 32.504C14.0428 33.8154 14.4302 34.471 15.2048 34.471C15.5875 34.471 15.8768 34.3147 16.0728 34.002C16.2688 33.6894 16.3668 33.1877 16.3668 32.497C16.3668 31.811 16.2665 31.3094 16.0658 30.992C15.8698 30.6747 15.5828 30.516 15.2048 30.516ZM21.9465 34.905H21.3235L21.1765 32.728C21.1112 31.7527 21.0762 31.0807 21.0715 30.712L20.1475 34.359H19.5385L18.5725 30.712C18.5772 31.118 18.5515 31.7947 18.4955 32.742L18.3555 34.905H17.7395L18.1105 30.089H18.9575L19.8535 33.652L20.7145 30.089H21.5755L21.9465 34.905ZM24.1511 31.909C24.6737 31.909 25.0774 32.0327 25.3621 32.28C25.6514 32.5227 25.7961 32.8844 25.7961 33.365C25.7961 33.8924 25.6467 34.282 25.3481 34.534C25.0541 34.7814 24.6411 34.905 24.1091 34.905H22.9261V30.089H25.3341L25.2571 30.614H23.5771V31.909H24.1511ZM24.1371 34.394C24.4637 34.394 24.7064 34.317 24.8651 34.163C25.0284 34.009 25.1101 33.7454 25.1101 33.372C25.1101 33.036 25.0284 32.791 24.8651 32.637C24.7017 32.483 24.4544 32.406 24.1231 32.406H23.5771V34.394H24.1371ZM28.1648 31.132C28.5661 31.132 28.8671 31.2977 29.0678 31.629C29.2731 31.9604 29.3758 32.434 29.3758 33.05C29.3758 33.6474 29.2615 34.121 29.0328 34.471C28.8088 34.821 28.4938 34.996 28.0878 34.996C27.7238 34.996 27.4298 34.849 27.2058 34.555V36.305L26.5758 36.382V31.223H27.1288L27.1638 31.72C27.4158 31.328 27.7495 31.132 28.1648 31.132ZM27.9408 34.492C28.4588 34.492 28.7178 34.0137 28.7178 33.057C28.7178 32.5577 28.6571 32.196 28.5358 31.972C28.4191 31.7434 28.2395 31.629 27.9968 31.629C27.8335 31.629 27.6888 31.678 27.5628 31.776C27.4368 31.874 27.3178 32.007 27.2058 32.175V34.037C27.3971 34.3404 27.6421 34.492 27.9408 34.492Z" fill="white"/>
<rect x="1.38164" y="28.4314" width="30.2367" height="7.94714" stroke="#F7732A" stroke-width="0.763271"/>
<path d="M18.8787 15.4589C17.0071 12.9241 17.8451 10.0318 18.3042 8.87924C18.366 8.72758 18.2013 8.58459 18.0716 8.67775C17.2665 9.25404 15.6173 10.6103 14.8494 12.519C13.8096 15.0993 13.8837 16.3624 14.4994 17.9049C14.87 18.8344 14.4396 19.0315 14.2235 19.0662C14.0134 19.1009 13.8199 18.9535 13.6655 18.7997C13.2213 18.3509 12.9047 17.7807 12.7513 17.1532C12.7184 17.0188 12.5516 16.982 12.4754 17.0925C11.8989 17.9309 11.6004 19.2763 11.586 20.2274C11.5407 23.1674 13.8487 25.5506 16.6406 25.5506C20.1593 25.5506 22.7227 21.4559 20.7008 18.0328C20.114 17.0362 19.5622 16.384 18.8787 15.4589Z" fill="#F7732A"/>
</svg>
