<svg width="43" height="57" viewBox="0 0 43 57" fill="none" xmlns="http://www.w3.org/2000/svg">
<path d="M24.6433 54.6908L22.6275 55.6624C21.9005 55.9994 21.0995 55.9994 20.3725 55.6624L18.3567 54.6908C13.2507 52.2159 8.86503 47.8991 5.76965 42.3017C2.67428 36.7042 1.01239 30.085 1 23.3043V11.5607C4.86935 12.2425 8.81581 11.6214 12.4236 9.76285C16.0314 7.90426 19.167 4.877 21.5 1C25.7708 8.68822 32.8433 12.3211 42 11.5607V23.3043C41.9876 30.085 40.3257 36.7042 37.2303 42.3017C34.135 47.8991 29.7493 52.2159 24.6433 54.6908Z" stroke="white" stroke-width="1.62698" stroke-linecap="round" stroke-linejoin="round"/>
<rect x="1.5" y="36.8677" width="40" height="10.3889" fill="#375219"/>
<path d="M6.146 39.0411V45.0621H5.345V39.8871L4.094 40.7331L3.725 40.1931L5.435 39.0411H6.146ZM9.52979 39.0411V45.0621H8.72879V39.8871L7.47779 40.7331L7.10879 40.1931L8.81879 39.0411H9.52979ZM13.3426 41.8491C13.7566 42.0351 14.0596 42.2571 14.2516 42.5151C14.4436 42.7731 14.5396 43.0911 14.5396 43.4691C14.5396 43.8051 14.4616 44.1021 14.3056 44.3601C14.1496 44.6181 13.9246 44.8191 13.6306 44.9631C13.3426 45.1071 13.0066 45.1791 12.6226 45.1791C12.2446 45.1791 11.9116 45.1101 11.6236 44.9721C11.3416 44.8281 11.1226 44.6271 10.9666 44.3691C10.8166 44.1111 10.7416 43.8171 10.7416 43.4871C10.7416 42.7431 11.1226 42.2091 11.8846 41.8851C11.5606 41.7111 11.3266 41.5131 11.1826 41.2911C11.0386 41.0691 10.9666 40.8021 10.9666 40.4901C10.9666 40.1661 11.0416 39.8871 11.1916 39.6531C11.3416 39.4191 11.5426 39.2421 11.7946 39.1221C12.0526 39.0021 12.3346 38.9421 12.6406 38.9421C13.1206 38.9421 13.5196 39.0741 13.8376 39.3381C14.1616 39.6021 14.3236 39.9741 14.3236 40.4541C14.3236 40.7601 14.2456 41.0241 14.0896 41.2461C13.9336 41.4681 13.6846 41.6691 13.3426 41.8491ZM12.6496 39.5361C12.3736 39.5361 12.1546 39.6171 11.9926 39.7791C11.8306 39.9351 11.7496 40.1751 11.7496 40.4991C11.7496 40.7691 11.8156 40.9821 11.9476 41.1381C12.0856 41.2881 12.3166 41.4291 12.6406 41.5611L12.8476 41.6511C13.0996 41.4831 13.2766 41.3121 13.3786 41.1381C13.4866 40.9581 13.5406 40.7421 13.5406 40.4901C13.5406 40.1721 13.4626 39.9351 13.3066 39.7791C13.1506 39.6171 12.9316 39.5361 12.6496 39.5361ZM12.6406 44.5491C12.9826 44.5491 13.2496 44.4591 13.4416 44.2791C13.6336 44.0931 13.7296 43.8231 13.7296 43.4691C13.7296 43.1511 13.6486 42.9051 13.4866 42.7311C13.3306 42.5511 13.0486 42.3771 12.6406 42.2091L12.3886 42.1101C12.1006 42.2601 11.8876 42.4431 11.7496 42.6591C11.6176 42.8751 11.5516 43.1451 11.5516 43.4691C11.5516 43.8291 11.6476 44.0991 11.8396 44.2791C12.0316 44.4591 12.2986 44.5491 12.6406 44.5491ZM19.8348 38.7531C20.5728 38.7531 21.1518 39.0261 21.5718 39.5721C21.9978 40.1121 22.2108 40.9101 22.2108 41.9661C22.2108 43.0041 22.0008 43.7991 21.5808 44.3511C21.1608 44.9031 20.5788 45.1791 19.8348 45.1791C19.0968 45.1791 18.5148 44.9091 18.0888 44.3691C17.6688 43.8231 17.4588 43.0251 17.4588 41.9751C17.4588 41.2851 17.5548 40.7001 17.7468 40.2201C17.9448 39.7341 18.2208 39.3681 18.5748 39.1221C18.9348 38.8761 19.3548 38.7531 19.8348 38.7531ZM19.8348 39.4191C18.8388 39.4191 18.3408 40.2711 18.3408 41.9751C18.3408 43.6611 18.8388 44.5041 19.8348 44.5041C20.3268 44.5041 20.6988 44.3031 20.9508 43.9011C21.2028 43.4991 21.3288 42.8541 21.3288 41.9661C21.3288 41.0841 21.1998 40.4391 20.9418 40.0311C20.6898 39.6231 20.3208 39.4191 19.8348 39.4191ZM28.5026 45.0621H27.7016L27.5126 42.2631C27.4286 41.0091 27.3836 40.1451 27.3776 39.6711L26.1896 44.3601H25.4066L24.1646 39.6711C24.1706 40.1931 24.1376 41.0631 24.0656 42.2811L23.8856 45.0621H23.0936L23.5706 38.8701H24.6596L25.8116 43.4511L26.9186 38.8701H28.0256L28.5026 45.0621ZM31.3371 41.2101C32.0091 41.2101 32.5281 41.3691 32.8941 41.6871C33.2661 41.9991 33.4521 42.4641 33.4521 43.0821C33.4521 43.7601 33.2601 44.2611 32.8761 44.5851C32.4981 44.9031 31.9671 45.0621 31.2831 45.0621H29.7621V38.8701H32.8581L32.7591 39.5451H30.5991V41.2101H31.3371ZM31.3191 44.4051C31.7391 44.4051 32.0511 44.3061 32.2551 44.1081C32.4651 43.9101 32.5701 43.5711 32.5701 43.0911C32.5701 42.6591 32.4651 42.3441 32.2551 42.1461C32.0451 41.9481 31.7271 41.8491 31.3011 41.8491H30.5991V44.4051H31.3191ZM36.4976 40.2111C37.0136 40.2111 37.4006 40.4241 37.6586 40.8501C37.9226 41.2761 38.0546 41.8851 38.0546 42.6771C38.0546 43.4451 37.9076 44.0541 37.6136 44.5041C37.3256 44.9541 36.9206 45.1791 36.3986 45.1791C35.9306 45.1791 35.5526 44.9901 35.2646 44.6121V46.8621L34.4546 46.9611V40.3281H35.1656L35.2106 40.9671C35.5346 40.4631 35.9636 40.2111 36.4976 40.2111ZM36.2096 44.5311C36.8756 44.5311 37.2086 43.9161 37.2086 42.6861C37.2086 42.0441 37.1306 41.5791 36.9746 41.2911C36.8246 40.9971 36.5936 40.8501 36.2816 40.8501C36.0716 40.8501 35.8856 40.9131 35.7236 41.0391C35.5616 41.1651 35.4086 41.3361 35.2646 41.5521V43.9461C35.5106 44.3361 35.8256 44.5311 36.2096 44.5311Z" fill="white"/>
<rect x="1.5" y="36.8677" width="40" height="10.3889" stroke="#F7732A"/>
<path d="M24.646 19.9052C22.1708 16.5909 23.2791 12.8092 23.8863 11.3022C23.968 11.1039 23.7501 10.9169 23.5786 11.0387C22.5139 11.7922 20.3327 13.5655 19.317 16.0612C17.9418 19.4349 18.0398 21.0864 18.854 23.1033C19.3442 24.3185 18.7751 24.5763 18.4891 24.6216C18.2114 24.667 17.9554 24.4743 17.7512 24.2732C17.1636 23.6865 16.745 22.9409 16.5421 22.1204C16.4986 21.9447 16.278 21.8966 16.1772 22.041C15.4148 23.1373 15.0199 24.8964 15.0009 26.14C14.941 29.984 17.9935 33.1 21.686 33.1C26.3398 33.1 29.73 27.7461 27.056 23.2704C26.2799 21.9674 25.5501 21.1147 24.646 19.9052Z" fill="#F7732A"/>
</svg>
